<svg width="1011" height="251" viewBox="0 0 1011 251" fill="none" xmlns="http://www.w3.org/2000/svg">
<path d="M5.80688 186.148L5.8069 62.0494L67.8804 96.5214V152.021L117.54 179.943L167.198 152.021V96.5214L229.272 62.0494V186.148L117.54 248.197L5.80688 186.148Z" fill="#FFF"/>
<path fill-rule="evenodd" clip-rule="evenodd" d="M37.0369 79.2856L6 62.0494L117.733 0L229.465 62.0494L198.428 79.2856V170.636L117.733 217.173L37.0368 170.636L37.0369 79.2856ZM195.066 81.1529L167.391 96.5214V96.1766L117.733 68.2542L68.0735 96.1766V96.5214L40.3991 81.1529V168.727L117.733 213.325L195.066 168.727V81.1529Z" fill="url(#paint0_linear_2_86)"/>
<path d="M288.763 176.341V72.0978H308.428V158.47H356.101V176.341H288.763Z" fill="#FFF"/>
<path d="M398.558 178.425C391.209 178.425 384.604 176.937 378.744 173.958C372.885 170.979 368.266 166.661 364.89 161.002C361.512 155.343 359.824 148.542 359.824 140.6V138.217C359.824 130.275 361.512 123.474 364.89 117.815C368.266 112.157 372.885 107.838 378.744 104.86C384.604 101.881 391.209 100.392 398.558 100.392C405.908 100.392 412.512 101.881 418.372 104.86C424.232 107.838 428.85 112.157 432.227 117.815C435.604 123.474 437.293 130.275 437.293 138.217V140.6C437.293 148.542 435.604 155.343 432.227 161.002C428.85 166.661 424.232 170.979 418.372 173.958C412.512 176.937 405.908 178.425 398.558 178.425ZM398.558 161.746C404.319 161.746 409.086 159.91 412.86 156.236C416.634 152.464 418.521 147.103 418.521 140.153V138.664C418.521 131.715 416.634 126.403 412.86 122.73C409.185 118.958 404.418 117.071 398.558 117.071C392.798 117.071 388.03 118.958 384.257 122.73C380.482 126.403 378.596 131.715 378.596 138.664V140.153C378.596 147.103 380.482 152.464 384.257 156.236C388.03 159.91 392.798 161.746 398.558 161.746Z" fill="#FFF"/>
<path d="M444.34 139.707V137.324C444.34 129.58 445.879 122.978 448.958 117.518C452.037 111.958 456.109 107.738 461.174 104.86C466.339 101.881 471.95 100.392 478.008 100.392C484.762 100.392 489.877 101.584 493.353 103.966C496.829 106.349 499.362 108.831 500.951 111.412H503.633V102.477H522.106V189.446C522.106 194.509 520.615 198.529 517.636 201.508C514.657 204.585 510.684 206.125 505.718 206.125H456.258V189.743H499.163C501.944 189.743 503.335 188.254 503.335 185.276V166.065H500.653C499.659 167.653 498.269 169.292 496.482 170.979C494.694 172.568 492.31 173.908 489.331 175.001C486.351 176.092 482.577 176.639 478.008 176.639C471.95 176.639 466.339 175.199 461.174 172.319C456.109 169.341 452.037 165.122 448.958 159.662C445.879 154.102 444.34 147.451 444.34 139.707ZM483.372 160.258C489.132 160.258 493.949 158.421 497.822 154.747C501.696 151.074 503.633 145.912 503.633 139.26V137.771C503.633 131.019 501.696 125.857 497.822 122.283C494.048 118.61 489.231 116.773 483.372 116.773C477.611 116.773 472.794 118.61 468.921 122.283C465.047 125.857 463.111 131.019 463.111 137.771V139.26C463.111 145.912 465.047 151.074 468.921 154.747C472.794 158.421 477.611 160.258 483.372 160.258Z" fill="#FFF"/>
<path d="M571.372 178.425C564.022 178.425 557.417 176.937 551.557 173.958C545.697 170.979 541.079 166.661 537.703 161.002C534.326 155.343 532.638 148.542 532.638 140.6V138.217C532.638 130.275 534.326 123.474 537.703 117.815C541.079 112.157 545.697 107.838 551.557 104.86C557.417 101.881 564.022 100.392 571.372 100.392C578.721 100.392 585.325 101.881 591.185 104.86C597.045 107.838 601.663 112.157 605.04 117.815C608.417 123.474 610.105 130.275 610.105 138.217V140.6C610.105 148.542 608.417 155.343 605.04 161.002C601.663 166.661 597.045 170.979 591.185 173.958C585.325 176.937 578.721 178.425 571.372 178.425ZM571.372 161.746C577.132 161.746 581.899 159.91 585.673 156.236C589.447 152.464 591.335 147.103 591.335 140.153V138.664C591.335 131.715 589.447 126.403 585.673 122.73C581.998 118.958 577.231 117.071 571.372 117.071C565.611 117.071 560.844 118.958 557.07 122.73C553.296 126.403 551.409 131.715 551.409 138.664V140.153C551.409 147.103 553.296 152.464 557.07 156.236C560.844 159.91 565.611 161.746 571.372 161.746Z" fill="#FFF"/>
<path d="M620.728 176.341V102.477H639.499V176.341H620.728ZM630.113 93.8397C626.737 93.8397 623.856 92.7478 621.473 90.5635C619.189 88.3791 618.047 85.4999 618.047 81.9264C618.047 78.3523 619.189 75.4731 621.473 73.2887C623.856 71.105 626.737 70.0125 630.113 70.0125C633.59 70.0125 636.47 71.105 638.754 73.2887C641.039 75.4731 642.181 78.3523 642.181 81.9264C642.181 85.4999 641.039 88.3791 638.754 90.5635C636.47 92.7478 633.59 93.8397 630.113 93.8397Z" fill="#FFF"/>
<path d="M653.596 206.125V102.477H672.071V111.412H674.753C676.438 108.533 679.068 106.001 682.65 103.817C686.224 101.533 691.339 100.392 697.993 100.392C703.953 100.392 709.464 101.881 714.526 104.86C719.594 107.738 723.665 112.007 726.744 117.667C729.823 123.326 731.363 130.176 731.363 138.217V140.6C731.363 148.642 729.823 155.492 726.744 161.151C723.665 166.81 719.594 171.129 714.526 174.107C709.464 176.986 703.953 178.425 697.993 178.425C693.52 178.425 689.746 177.879 686.667 176.787C683.687 175.794 681.255 174.504 679.372 172.915C677.581 171.228 676.141 169.54 675.051 167.852H672.368V206.125H653.596ZM692.33 162.044C698.191 162.044 703.008 160.207 706.781 156.534C710.654 152.762 712.59 147.301 712.59 140.153V138.664C712.59 131.516 710.654 126.105 706.781 122.432C702.909 118.66 698.092 116.773 692.33 116.773C686.568 116.773 681.751 118.66 677.879 122.432C674.007 126.105 672.071 131.516 672.071 138.664V140.153C672.071 147.301 674.007 152.762 677.879 156.534C681.751 160.207 686.568 162.044 692.33 162.044Z" fill="#FFF"/>
<path d="M772.582 178.425C762.948 178.425 755.052 176.341 748.893 172.171C742.741 168.001 739.015 162.044 737.719 154.3L755.006 149.833C755.699 153.308 756.843 156.038 758.428 158.024C760.12 160.009 762.155 161.448 764.541 162.342C767.019 163.136 769.701 163.534 772.582 163.534C776.95 163.534 780.181 162.789 782.27 161.3C784.351 159.711 785.395 157.775 785.395 155.492C785.395 153.208 784.404 151.471 782.415 150.28C780.433 148.989 777.254 147.947 772.88 147.153L768.71 146.408C763.543 145.415 758.825 144.075 754.556 142.387C750.288 140.6 746.858 138.168 744.274 135.09C741.697 132.012 740.402 128.041 740.402 123.176C740.402 115.83 743.085 110.221 748.451 106.349C753.81 102.378 760.867 100.392 769.602 100.392C777.849 100.392 784.701 102.229 790.159 105.902C795.624 109.575 799.199 114.391 800.89 120.347L783.459 125.708C782.666 121.936 781.027 119.255 778.543 117.667C776.157 116.078 773.177 115.284 769.602 115.284C766.027 115.284 763.298 115.929 761.409 117.22C759.525 118.411 758.58 120.099 758.58 122.283C758.58 124.666 759.572 126.452 761.561 127.644C763.543 128.736 766.226 129.58 769.602 130.176L773.772 130.92C779.336 131.913 784.351 133.253 788.825 134.941C793.391 136.529 796.965 138.862 799.549 141.941C802.232 144.919 803.573 148.989 803.573 154.152C803.573 161.896 800.738 167.902 795.076 172.171C789.518 176.341 782.018 178.425 772.582 178.425Z" fill="#FFF"/>
<path d="M841.469 177.532C835.714 177.532 830.646 176.241 826.278 173.66C822.009 170.979 818.679 167.306 816.293 162.64C813.914 157.974 812.718 152.613 812.718 146.557V102.477H831.491V145.067C831.491 150.627 832.833 154.797 835.516 157.576C838.291 160.357 842.216 161.746 847.284 161.746C853.04 161.746 857.513 159.86 860.691 156.088C863.87 152.216 865.456 146.855 865.456 140.004V102.477H884.229V176.341H865.753V166.661H863.077C861.881 169.143 859.647 171.575 856.37 173.958C853.092 176.341 848.123 177.532 841.469 177.532Z" fill="#FFF"/>
<path d="M898.416 176.341V102.477H916.885V110.519H919.567C920.856 108.036 922.997 105.902 925.97 104.115C928.95 102.229 932.876 101.286 937.746 101.286C943.005 101.286 947.228 102.328 950.406 104.413C953.585 106.398 956.016 109.029 957.708 112.305H960.384C962.076 109.129 964.461 106.498 967.54 104.413C970.62 102.328 974.987 101.286 980.65 101.286C985.216 101.286 989.34 102.279 993.013 104.264C996.787 106.15 999.767 109.079 1001.95 113.05C1004.23 116.922 1005.38 121.836 1005.38 127.793V176.341H986.604V129.134C986.604 125.063 985.566 122.035 983.478 120.049C981.39 117.965 978.463 116.922 974.69 116.922C970.421 116.922 967.091 118.312 964.706 121.092C962.426 123.772 961.283 127.644 961.283 132.708V176.341H942.51V129.134C942.51 125.063 941.466 122.035 939.384 120.049C937.296 117.965 934.369 116.922 930.589 116.922C926.32 116.922 922.997 118.312 920.611 121.092C918.325 123.772 917.182 127.644 917.182 132.708V176.341H898.416Z" fill="#FFF"/>
<defs>
<linearGradient id="paint0_linear_2_86" x1="37.0368" y1="48.2606" x2="204.636" y2="48.2606" gradientUnits="userSpaceOnUse">
<stop stop-color="#64C2DB"/>
<stop offset="0.307292" stop-color="#7476ED"/>
<stop offset="0.604167" stop-color="#C994DF"/>
<stop offset="1" stop-color="#E56F8C"/>
</linearGradient>
</defs>
</svg>
